<svg xmlns="http://www.w3.org/2000/svg" viewBox="0 0 100 100"><defs><linearGradient id="g" x1="0" y1="1" x2="1" y2="0"><stop stop-color="#6d28d9"/><stop offset="1" stop-color="#38bdf8"/></linearGradient></defs><rect x="7" y="7" width="86" height="86" rx="25" fill="url(#g)"/><path d="M32 76V25h23c14 0 23 8 23 21S69 67 55 67H45v9z" fill="#fff"/><path d="M45 38v17h10c6 0 10-3 10-9s-4-8-10-8z" fill="#7c3aed"/><path d="M76 77l4 7 8 1-6 5 1 7-7-4-7 4 2-8-6-4 8-1z" fill="#fbbf24" transform="translate(-2 -7) scale(.9)"/></svg>